<svg id="Layer_3" data-name="Layer 3" xmlns="http://www.w3.org/2000/svg" xmlns:xlink="http://www.w3.org/1999/xlink" viewBox="0 0 341.88 976.14"><defs><style>.cls-1,.cls-4{fill:#fff;}.cls-2{fill:#e2dac7;}.cls-3{fill:#f6921e;}.cls-4{stroke:#fff;stroke-width:2px;}.cls-10,.cls-4,.cls-5,.cls-6{stroke-miterlimit:10;}.cls-11,.cls-13,.cls-5,.cls-6{fill:none;}.cls-10,.cls-11,.cls-13,.cls-5,.cls-6{stroke:#000;}.cls-5{stroke-width:19px;}.cls-6{stroke-width:14px;}.cls-7{fill:url(#linear-gradient);}.cls-8{fill:url(#linear-gradient-2);}.cls-9{fill:#b3b3b3;}.cls-11{stroke-width:0.5px;}.cls-12{fill-rule:evenodd;}.cls-13{stroke-width:0.25px;}</style><linearGradient id="linear-gradient" x1="34.19" y1="185.66" x2="60.92" y2="185.66" gradientTransform="matrix(1, 0, 0, -1, 892.89, 371.32)" gradientUnits="userSpaceOnUse"><stop offset="0" stop-color="#fff" stop-opacity="0"/><stop offset="0.03" stop-color="#fff6e8" stop-opacity="0.44"/><stop offset="0.24" stop-color="#fffcf8" stop-opacity="0.04"/><stop offset="0.85" stop-color="#fbb03b"/></linearGradient><linearGradient id="linear-gradient-2" x1="1238.68" y1="185.66" x2="1265.41" y2="185.66" gradientTransform="translate(-1104.72 -17)" xlink:href="#linear-gradient"/></defs><g id="BarryBaseSabre"><path class="cls-1" d="M845.85,608.21l30.52,232.26s75.57,23.77,127.49-3.85l16.93-238.48,12-14.29-7.63-29.25-40-4.63-57-23.61L879.85,524,863.47,537l-26.88,27L824.1,582.24l1.69,17.08Z" transform="translate(-766.38 -17)"/><path class="cls-2" d="M874.08,533.17c8.7-4,18-5.24,27.58-4.85.8,0,1.7,1.35,2.4,1.73a5.43,5.43,0,0,1,2,2.54c5.31,10.78,10.1,22.47,19.6,29.82a50.65,50.65,0,0,0,14.73,7.42c26.81,9.21,59,5.72,83.89-7.8,2.75,6.46,5.45,14.33,3.32,21-2.92,9.2-15,13.39-24.22,16.13-7.64,2.25-15.55,4-23.29,5.87-13.11,3.2-23.1-2.81-34.61-1.81-13.52,1.18-27.16,11.06-40.73,10.5-7.35-.3-14.43-5.37-22-7.21-9.44-2.29-18.74-1.92-28.45-1.73a45.46,45.46,0,0,1-20.16-4.75,17.67,17.67,0,0,1-1-31.12c13.44.45,27.15,1,39.81,5.49,7.28,2.61,14.17,6.53,21.79,7.83,4.72.8,10.28.23,13.16-3.6,2.48-3.31,2.08-8.11.12-11.75s-5.21-6.4-8.38-9.06C890.7,550.4,881,542,872.14,534.56" transform="translate(-766.38 -17)"/><path class="cls-3" d="M908.23,660.54s49.69,5,92-12.87L989.34,800.59s-33.8,16.93-68.3,12.1Z" transform="translate(-766.38 -17)"/><polygon class="cls-3" points="99.62 634.65 114.3 639.47 131.69 790.15 121.01 786.53 99.62 634.65"/><path class="cls-2" d="M906.06,624l.85,26.39s57.61,4.75,94.85-16l1.85-24.5-55.75-.43Z" transform="translate(-766.38 -17)"/><polygon class="cls-2" points="94.43 596.51 97.25 622.84 112.64 628.95 109.67 598.01 94.43 596.51"/><circle class="cls-4" cx="184.08" cy="734.97" r="8.58"/><circle class="cls-4" cx="203.38" cy="719.16" r="5.28"/><ellipse class="cls-4" cx="950.47" cy="711.02" rx="5.94" ry="5.28" transform="translate(-788.74 13.9) rotate(-1.84)"/><path d="M1021.28,564.83a19.14,19.14,0,0,1,1.18,2.24l-.91-2.15a34.28,34.28,0,0,1,2.1,8.65l-.32-2.39c.49,3.72,1,7.48.57,11.23l.32-2.39a17.88,17.88,0,0,1-1.21,4.36l.9-2.15a20.84,20.84,0,0,1-2.36,4l1.41-1.82a26.16,26.16,0,0,1-4.42,4.44l1.82-1.41a39.74,39.74,0,0,1-8.63,4.89l2.15-.91c-5.45,2.29-11.14,4.12-16.78,5.87a110.76,110.76,0,0,1-17.77,4.17l2.39-.32a64.66,64.66,0,0,1-14.18.36c-4.87-.44-9.7-1.33-14.59-1.63-10.19-.63-20.14,2.12-29.73,5.26-5.08,1.66-10.15,3.46-15.47,4.2l2.39-.32a30.85,30.85,0,0,1-7.74,0l2.39.32c-7.69-1.07-14.63-4.75-22-7-8.41-2.55-17.35-3-26.08-3.46-4.67-.24-9.35-.49-14-1.11l2.4.33a33.69,33.69,0,0,1-8-2l2.15.9a17.94,17.94,0,0,1-4-2.32l1.82,1.41a19,19,0,0,1-3-3.06l1.4,1.82a21.24,21.24,0,0,1-2.7-4.69l.9,2.15a22.8,22.8,0,0,1-1.41-5.27l.32,2.4a22.65,22.65,0,0,1,0-5.64l-.32,2.4a26.57,26.57,0,0,1,1.79-6.56l-.91,2.15a31.68,31.68,0,0,1,3.88-6.6l-1.4,1.82a38.73,38.73,0,0,1,6.87-6.73l-1.82,1.41c4-3,8.19-5.77,12.09-8.93a58.77,58.77,0,0,0,8.25-8.44c4.9-6,9.29-12.44,15.42-17.23l-1.83,1.4a34.53,34.53,0,0,1,7.36-4.29l-2.15.91a45.12,45.12,0,0,1,11-2.9l-2.39.32c9-1.21,18.31-.58,27.29.62l-2.4-.32a140.74,140.74,0,0,1,35.52,9.74l-2.15-.91c8,3.42,15.52,7.91,23.38,11.67a79.94,79.94,0,0,0,13.42,5.24,57.22,57.22,0,0,0,15.2,1.84c5.32,0,10.65-.45,16,.24l-2.39-.32a26.87,26.87,0,0,1,6.35,1.71l-2.15-.91a23.76,23.76,0,0,1,4.89,2.81l-1.82-1.41a19.25,19.25,0,0,1,3.16,3.09l-1.41-1.82a14.7,14.7,0,0,1,1.84,3.13l-.9-2.15a13,13,0,0,1,.78,2.87l-.32-2.4c.05.46.09.9.11,1.36.16,4.7,4,9.22,9,9,4.73-.21,9.17-4,9-9-.4-11.21-9-19.15-19.06-22.55-9.82-3.32-20.3-.76-30.36-2l2.39.32a51.55,51.55,0,0,1-12.79-3.67l2.15.91c-4.69-2-9.17-4.41-13.66-6.8-5.18-2.75-10.42-5.28-15.82-7.56a141,141,0,0,0-30.56-9c-10.69-1.85-21.9-3.08-32.73-1.94a70.76,70.76,0,0,0-9.29,1.49,52,52,0,0,0-8.71,3.12,42.62,42.62,0,0,0-12.59,9c-7.31,7.33-12.44,16.51-20.7,22.93l1.83-1.4c-5.93,4.55-12.67,8.33-17.44,14.2-5.25,6.48-8.81,14.07-9,22.53a29.92,29.92,0,0,0,8.12,20.95,27.08,27.08,0,0,0,11,6.79c4,1.38,8.28,1.78,12.42,2.2,8.23.83,16.52.73,24.72,1.81l-2.39-.32a67.28,67.28,0,0,1,14.32,3.62c4.48,1.65,8.89,3.55,13.54,4.68a42.74,42.74,0,0,0,18.46.38c5-.94,9.87-2.73,14.73-4.3a97.28,97.28,0,0,1,16.81-4.2l-2.39.33a54.55,54.55,0,0,1,12.77,0c4.31.46,8.59,1.2,12.92,1.46,9.2.57,18.55-1.07,27.39-3.51a168.63,168.63,0,0,0,25.39-8.89c8.44-3.87,15.72-10.53,18.67-19.52,1.68-5.1,1.2-10.47.53-15.68-.74-5.7-1.56-11.28-4.61-16.28-2.46-4-8.18-5.9-12.32-3.23s-5.85,8-3.23,12.31Z" transform="translate(-766.38 -17)"/><path class="cls-5" d="M1020.75,597.92l-18.07,237.57s-53.06,34.07-127.34,4.1L843.85,606.93" transform="translate(-766.38 -17)"/><path class="cls-5" d="M872.43,818.08s58.63,25.72,131.8-2.91" transform="translate(-766.38 -17)"/></g><polyline class="cls-6" points="104.91 800.07 51.44 868.72 45.5 965.1 0.61 969.06"/><polyline class="cls-6" points="236.97 800.17 290.44 868.83 296.38 965.2 341.27 969.16"/><polyline class="cls-6" points="250.8 629.09 320.77 526.78 168.95 423.14"/><polyline class="cls-6" points="82.47 630.41 10.77 527.1 153.76 422.48"/><rect class="cls-7" x="927.08" y="17" width="26.73" height="337.32" transform="translate(1114.51 354.32) rotate(-180)"/><rect class="cls-8" x="133.96" width="26.73" height="337.32"/><line class="cls-9" x1="151.78" y1="337.32" x2="168.29" y2="337.32"/><line class="cls-9" x1="168.29" y1="434.36" x2="151.78" y2="434.36"/><path class="cls-9" d="M918.17,354.32" transform="translate(-766.38 -17)"/><path class="cls-10" d="M922.13,357.62" transform="translate(-766.38 -17)"/><polygon class="cls-11" points="150.08 463.36 152.92 461.96 152.92 457.31 151.5 455.79 151.5 416.39 171.38 416.39 171.38 455.79 169.96 457.31 169.96 461.96 172.8 463.36 172.8 469.42 169.96 470.43 169.96 473.97 152.92 473.97 152.92 470.43 150.08 469.42 150.08 463.36"/><rect x="152.8" y="470.03" width="6.06" height="0.76"/><rect x="164.02" y="470.03" width="6.06" height="0.76"/><rect x="152.96" y="461.54" width="5.91" height="0.76"/><rect x="164.17" y="461.54" width="5.91" height="0.76"/><rect x="152.65" y="457" width="17.42" height="0.76"/><path class="cls-12" d="M913.43,437.18H918v21.21h-4.55Zm-3-.75h3v22.72h-3Z" transform="translate(-766.38 -17)"/><path class="cls-12" d="M917.6,432.18h20.45v2.73H917.6Zm2.65-1.36H935.4l2.65,1.36H917.6Zm0-16.36H935.4l1.51,1.36H918.73Zm0-4.09H935.4l1.51,1.36H918.73Zm0-4.09H935.4l1.51,1.36H918.73Zm0-4.09H935.4l1.51,1.36H918.73Zm0-4.09H935.4l1.51,1.36H918.73Zm0-4.1H935.4l1.51,1.37H918.73Zm0,28.64H935.4l1.51,1.36H918.73Zm0,4.09H935.4l1.51,1.36H918.73Zm0-8.18H935.4l1.51,1.36H918.73Zm15.15,12.27H920.25l-1.52-1.36h18.18Zm0-16.36H920.25l-1.52-1.37h18.18Zm0-4.09H920.25L918.73,409h18.18Zm0-4.09H920.25l-1.52-1.37h18.18Zm0-4.09H920.25l-1.52-1.37h18.18Zm0-4.09H920.25l-1.52-1.37h18.18Zm0,24.54H920.25l-1.52-1.36h18.18Zm0,4.09H920.25l-1.52-1.36h18.18Zm0-8.18H920.25l-1.52-1.37h18.18Z" transform="translate(-766.38 -17)"/><rect x="156.89" y="369.43" width="9.09" height="8.33"/><rect x="156.89" y="357.31" width="9.09" height="6.82"/><path class="cls-11" d="M932.37,362.19v-7.58h-9.09v7.58H915.7v1.51h24.24v-1.51Zm-12.12,4.54-1.52-1.51V363.7h18.18v1.52l-1.51,1.51v6.06h-1.52v1.52H921.76v-1.52h-1.51Z" transform="translate(-766.38 -17)"/><rect x="155.38" y="369.43" width="12.12" height="1.52"/><rect x="153.86" y="363.37" width="15.15" height="4.55"/><polygon class="cls-13" points="153 367.92 169.91 367.92 170.53 369.43 152.35 369.43 153 367.92"/><rect x="156.89" y="344.81" width="9.09" height="0.76"/><rect x="153.86" y="349.36" width="15.15" height="0.76"/><rect x="153.86" y="355.42" width="15.15" height="0.76"/><polygon class="cls-11" points="159.55 461.24 163.33 461.24 165.23 462.99 165.23 469.45 163.33 471.09 159.55 471.09 157.65 469.45 157.65 462.99 159.55 461.24"/><rect x="152.58" y="461.85" width="0.76" height="8.33"/><rect x="169.62" y="461.85" width="0.76" height="8.33"/></svg>