<svg id="Layer_3" data-name="Layer 3" xmlns="http://www.w3.org/2000/svg" viewBox="0 0 1004 1004"><defs><style>.cls-1{fill:#ffc000;stroke-width:4px;}.cls-1,.cls-6,.cls-7,.cls-8{stroke:#000;}.cls-1,.cls-5,.cls-6,.cls-7,.cls-8{stroke-miterlimit:10;}.cls-2,.cls-5{fill:#fff;}.cls-3{fill:#e2dac7;}.cls-4{fill:#f6921e;}.cls-5{stroke:#fff;stroke-width:2px;}.cls-6,.cls-7,.cls-8{fill:none;}.cls-6{stroke-width:19px;}.cls-7{stroke-width:14px;}.cls-8{stroke-width:12px;}</style></defs><circle class="cls-1" cx="502" cy="502" r="500"/><path class="cls-2" d="M700.31,471.27,906.08,760.4s118-21.85,167.86-95.69L927.25,333.58,933.11,306l-31-33.72-56.81,22.21-93,8.86L686,334.49,673.3,363.44l-16.8,55.21L652.77,452l14.38,21.66Z" transform="translate(-520 -31)"/><path class="cls-3" d="M684.8,350.82c8.81-11.52,20.38-19.81,33.47-26.07,1.08-.52,3.22.59,4.43.61a8.17,8.17,0,0,1,4.46,2c14.76,10.65,29.48,22.9,47.41,26,8.25,1.42,16.72.79,25-.52,42.4-6.72,83-34.24,106.71-70,8.26,6.7,17.46,15.32,19.37,25.78,2.62,14.4-10.51,28.55-21,38.79-8.63,8.44-18,16.36-27,24.39-15.27,13.6-32.92,12.65-47.6,22.16-17.26,11.19-28.49,34.09-47,43-10,4.81-23.14,3.05-34.6,6-14.27,3.64-26.44,10.75-39.31,17.9-8.87,4.93-20.2,7.68-30.35,8a26.78,26.78,0,0,1-23.44-40.94c18.32-8.94,37-18,57.18-20.92,11.6-1.68,23.59-1.33,34.71-5,6.89-2.27,13.93-7,15.06-14.16,1-6.19-3-12.33-8.19-15.81s-11.51-4.86-17.64-6.16c-17.2-3.66-36.09-8-53.28-11.68" transform="translate(-520 -31)"/><path class="cls-4" d="M820.93,497S891,468.41,935,414.42l94,212.39s-33.21,46.67-82.8,64.69Z" transform="translate(-520 -31)"/><polygon class="cls-4" points="238.12 484.1 261.19 480.12 391.47 669.4 374.6 672.15 238.12 484.1"/><path class="cls-3" d="M792.05,449.58l19.88,34.72s80.47-34.55,115.55-88.78l-14.91-34.1-74.92,39Z" transform="translate(-520 -31)"/><polygon class="cls-3" points="204.1 436.75 226.57 469.97 251.5 467.22 225.55 427.93 204.1 436.75"/><circle class="cls-5" cx="422.38" cy="558.36" r="13"/><circle class="cls-5" cx="436.98" cy="523.5" r="8"/><ellipse class="cls-5" cx="913.31" cy="534.57" rx="9" ry="8" transform="translate(-664.89 493.48) rotate(-29.79)"/><path d="M906.89,284.83a28.36,28.36,0,0,1,3,2l-1.82-1.41a42.34,42.34,0,0,1,6.86,7.17l-1.41-1.82c3.94,5.12,8,10.56,10.56,16.52l-.91-2.15a27,27,0,0,1,1.79,6.54l-.32-2.4a30.42,30.42,0,0,1,0,7.2l.32-2.39a38.08,38.08,0,0,1-2.57,9.37l.91-2.15a55.15,55.15,0,0,1-7.07,11.77l1.41-1.82c-5.41,7-11.69,13.37-17.85,19.68a188,188,0,0,1-19.26,17.53l1.82-1.4A100.6,100.6,0,0,1,860.5,380l2.15-.91c-11.36,4.78-23.39,8.14-33.7,15.11-9.81,6.64-18.09,15.06-26.26,23.55a133.82,133.82,0,0,1-14.1,13.36l1.82-1.41a48,48,0,0,1-10.4,6.13l2.15-.91c-6,2.46-12.37,3.6-18.76,4.46l2.39-.32c-9.47,1.26-19,2.1-28.18,4.9s-17.92,6.88-26.58,10.94c-4.65,2.17-9.29,4.35-14,6.35l2.15-.91c-5.47,2.3-11.09,4.55-17,5.44l2.39-.32a28.28,28.28,0,0,1-7.41.06l2.39.32a27.89,27.89,0,0,1-6.66-1.84l2.15.9a31.62,31.62,0,0,1-6.72-3.93l1.82,1.41a34.39,34.39,0,0,1-5.84-5.85l1.41,1.82a34,34,0,0,1-4.25-7.36l.91,2.15A39.26,39.26,0,0,1,659.9,444l.32,2.39a45.81,45.81,0,0,1,0-11.93l-.33,2.4a54.52,54.52,0,0,1,3.83-13.54l-.91,2.15c4.1-9.63,9.69-18.53,12.74-28.61,2.72-9,3.85-18.35,5.78-27.52a85.27,85.27,0,0,1,4.51-15.19L685,356.3A51.3,51.3,0,0,1,691.59,345l-1.41,1.82a64.18,64.18,0,0,1,11.39-11.13l-1.82,1.41c9.08-6.93,19.46-12,29.94-16.46l-2.15.91a212.61,212.61,0,0,1,53.6-14.65l-2.39.32a211,211,0,0,1,21.9-1.79c7.25-.21,14.51,0,21.76-.14a138.68,138.68,0,0,0,23.37-2.07,78,78,0,0,0,21.67-7.73c6.84-3.55,13.34-7.75,20.44-10.79l-2.15.91a44.11,44.11,0,0,1,10.6-3.08l-2.39.33a35.79,35.79,0,0,1,9.42-.06l-2.39-.32a28.13,28.13,0,0,1,7,1.89l-2.15-.91a22.14,22.14,0,0,1,4.56,2.67l-1.82-1.41a19.74,19.74,0,0,1,3.22,3.24l-1.41-1.82a19.83,19.83,0,0,1,1.39,2.12c2.34,4.09,8.26,5.85,12.32,3.23a9.17,9.17,0,0,0,3.23-12.31c-5.58-9.77-16.48-14.33-27.35-14.66-11.31-.34-21.61,4.33-31.29,9.71a179.38,179.38,0,0,1-16.43,8.6l2.15-.91a71.13,71.13,0,0,1-17.92,4.65l2.39-.32c-15.89,2.05-32,.47-47.95,1.69A221.11,221.11,0,0,0,742.44,297a229.32,229.32,0,0,0-24.19,9.09,159,159,0,0,0-19.8,10.11A86.41,86.41,0,0,0,680.91,330a62.86,62.86,0,0,0-13.08,21.06c-6,15.49-5.68,32.62-12.12,48l.91-2.15c-4.21,9.87-10.23,19-12.93,29.5a55.08,55.08,0,0,0-1.8,16.41,50,50,0,0,0,4.2,17.7A39.93,39.93,0,0,0,667,480.92a33.85,33.85,0,0,0,15.48,2.78,59,59,0,0,0,17.09-4.22c11.14-4.31,21.72-9.87,32.71-14.53l-2.15.91a122.49,122.49,0,0,1,13.9-5A102,102,0,0,1,758.46,458l-2.39.32c12.87-1.71,26-2.6,37.59-9.15,10.76-6.1,18.88-15.83,27.44-24.53a148.77,148.77,0,0,1,14.52-13.2l-1.82,1.41a79.09,79.09,0,0,1,17.27-10l-2.15.91c11.31-4.76,23.06-8.27,33.54-14.82,9.94-6.22,18.87-14,27.15-22.29,4-3.95,7.8-8,11.61-12.12A142.08,142.08,0,0,0,933.35,340c7.49-10.54,12-24.56,8-37.33-2.13-6.76-6.17-12.53-10.26-18.21-4.23-5.87-8.78-11.46-15.12-15.17-4.06-2.39-10-1.07-12.31,3.22a9.18,9.18,0,0,0,3.23,12.32Z" transform="translate(-520 -31)"/><path class="cls-6" d="M927,333.31l144.52,330.74s-46.81,83.26-167.48,95.9L696.72,471" transform="translate(-520 -31)"/><path class="cls-6" d="M884.91,733.24s96.72-7.22,174.29-97.49" transform="translate(-520 -31)"/><polyline class="cls-7" points="510.92 677.43 606 722 723 666 758 700"/><polyline class="cls-7" points="351.23 673.81 264.53 733.05 253.31 862.27 206.24 875.14"/><line class="cls-8" x1="585" y1="443.47" x2="639.38" y2="443.47"/><line class="cls-8" x1="691.59" y1="443.47" x2="843" y2="443"/><path class="cls-8" d="M1144.16,414" transform="translate(-520 -31)"/><line class="cls-8" x1="639.38" y1="388.5" x2="670.93" y2="388.5"/><line class="cls-8" x1="708.99" y1="388.5" x2="823.2" y2="388.5"/><line class="cls-8" x1="894.99" y1="443.47" x2="952.63" y2="443.47"/><line class="cls-8" x1="640.47" y1="512.18" x2="741.62" y2="512.18"/><line class="cls-8" x1="782.96" y1="512.18" x2="823.2" y2="512.18"/><line class="cls-8" x1="871.06" y1="512.18" x2="982" y2="512.18"/><line class="cls-8" x1="585" y1="567.16" x2="639.38" y2="567.16"/><line class="cls-8" x1="691.59" y1="567.16" x2="849" y2="567"/><line class="cls-8" x1="894.99" y1="567.16" x2="952.63" y2="567.16"/><path class="cls-8" d="M1147.42,654.5" transform="translate(-520 -31)"/><line class="cls-8" x1="642.65" y1="629" x2="674.19" y2="629"/><line class="cls-8" x1="712.26" y1="629" x2="826.46" y2="629"/><path d="M1017.57,518a55.8,55.8,0,0,1,3.35-11.16L1020,509a56.5,56.5,0,0,1,7.08-12.14l-1.41,1.82a53.27,53.27,0,0,1,9.22-9.34l-1.82,1.41a27.1,27.1,0,0,1,5.68-3.37l-2.15.91c5-2,10.43-2.19,15.66-3.21a76.16,76.16,0,0,0,17.13-5.72,48.89,48.89,0,0,0,14.67-9.73,75.7,75.7,0,0,0,5.2-6.12c2-2.47,4-5,5.74-7.58a38.82,38.82,0,0,0,7-19.22,9,9,0,0,0-9-9c-5.17.23-8.64,3.95-9,9,0,.55-.1,1.1-.17,1.65l.32-2.39a25.87,25.87,0,0,1-1.67,5.91l.91-2.15a50.87,50.87,0,0,1-6.86,11.05l1.41-1.82c-2.89,3.7-5.77,7.55-9.48,10.46l1.82-1.4a55.37,55.37,0,0,1-11.66,6.53l2.15-.91A67.64,67.64,0,0,1,1045.5,468c-2.56.42-5.15.7-7.71,1.18a36.1,36.1,0,0,0-9.31,3.13,38.76,38.76,0,0,0-8,5.62,52,52,0,0,0-5.07,5,63.84,63.84,0,0,0-9.22,13.26,62.85,62.85,0,0,0-6,17,9.61,9.61,0,0,0,.91,6.93,9,9,0,0,0,12.31,3.23,8.9,8.9,0,0,0,4.14-5.38Z" transform="translate(-520 -31)"/><path d="M942.77,481c.52-5,1.05-10.11,1.72-15.14l-.33,2.39c1.43-10.57,3.54-21.11,7.67-31l-.9,2.15a68.43,68.43,0,0,1,8.69-15l-1.4,1.82a55.32,55.32,0,0,1,9.72-9.8l-1.82,1.4A45.16,45.16,0,0,1,976,412l-2.15.9c6.26-2.57,13.06-3.17,19.42-5.4a38.51,38.51,0,0,0,12-6.72,40.94,40.94,0,0,0,7.48-8.54c4.22-6.09,7.14-13.16,9.88-20a151.71,151.71,0,0,0,6.67-21,166.29,166.29,0,0,0,4-26.45,9.05,9.05,0,0,0-2.63-6.36,9.15,9.15,0,0,0-6.37-2.64c-5.16.23-8.63,4-9,9q-.33,4.59-.93,9.15l.32-2.4A151.41,151.41,0,0,1,1004.26,370l.91-2.15c-2.49,5.89-5.21,11.81-9.1,16.92l1.41-1.83a31.13,31.13,0,0,1-5.52,5.6l1.82-1.4a26.05,26.05,0,0,1-5.67,3.23l2.15-.9a68.57,68.57,0,0,1-11,3.08A66.19,66.19,0,0,0,968,396a55.59,55.59,0,0,0-18.59,12.89c-11.13,11.65-17.42,26.85-20.61,42.47-2,9.75-3,19.68-4,29.58-.22,2.15,1.17,4.89,2.64,6.36a9,9,0,0,0,12.73,0,10.26,10.26,0,0,0,2.63-6.36Z" transform="translate(-520 -31)"/></svg>